<?xml version="1.0" encoding="utf-8"?>
<svg xmlns="http://www.w3.org/2000/svg" xmlns:xlink="http://www.w3.org/1999/xlink" style="margin: auto; background: rgb(255, 255, 255); display: block; shape-rendering: auto;" width="217px" height="217px" viewBox="0 0 100 100" preserveAspectRatio="xMidYMid">
<g transform="rotate(0 50 50)">
  <rect x="47.5" y="21" rx="2.5" ry="5.04" width="5" height="12" fill="#ac71fe">
    <animate attributeName="opacity" values="1;0" keyTimes="0;1" dur="0.819672131147541s" begin="-0.7566204287515763s" repeatCount="indefinite"></animate>
  </rect>
</g><g transform="rotate(27.692307692307693 50 50)">
  <rect x="47.5" y="21" rx="2.5" ry="5.04" width="5" height="12" fill="#ac71fe">
    <animate attributeName="opacity" values="1;0" keyTimes="0;1" dur="0.819672131147541s" begin="-0.6935687263556116s" repeatCount="indefinite"></animate>
  </rect>
</g><g transform="rotate(55.38461538461539 50 50)">
  <rect x="47.5" y="21" rx="2.5" ry="5.04" width="5" height="12" fill="#ac71fe">
    <animate attributeName="opacity" values="1;0" keyTimes="0;1" dur="0.819672131147541s" begin="-0.6305170239596469s" repeatCount="indefinite"></animate>
  </rect>
</g><g transform="rotate(83.07692307692308 50 50)">
  <rect x="47.5" y="21" rx="2.5" ry="5.04" width="5" height="12" fill="#ac71fe">
    <animate attributeName="opacity" values="1;0" keyTimes="0;1" dur="0.819672131147541s" begin="-0.5674653215636822s" repeatCount="indefinite"></animate>
  </rect>
</g><g transform="rotate(110.76923076923077 50 50)">
  <rect x="47.5" y="21" rx="2.5" ry="5.04" width="5" height="12" fill="#ac71fe">
    <animate attributeName="opacity" values="1;0" keyTimes="0;1" dur="0.819672131147541s" begin="-0.5044136191677175s" repeatCount="indefinite"></animate>
  </rect>
</g><g transform="rotate(138.46153846153845 50 50)">
  <rect x="47.5" y="21" rx="2.5" ry="5.04" width="5" height="12" fill="#ac71fe">
    <animate attributeName="opacity" values="1;0" keyTimes="0;1" dur="0.819672131147541s" begin="-0.44136191677175285s" repeatCount="indefinite"></animate>
  </rect>
</g><g transform="rotate(166.15384615384616 50 50)">
  <rect x="47.5" y="21" rx="2.5" ry="5.04" width="5" height="12" fill="#ac71fe">
    <animate attributeName="opacity" values="1;0" keyTimes="0;1" dur="0.819672131147541s" begin="-0.37831021437578816s" repeatCount="indefinite"></animate>
  </rect>
</g><g transform="rotate(193.84615384615384 50 50)">
  <rect x="47.5" y="21" rx="2.5" ry="5.04" width="5" height="12" fill="#ac71fe">
    <animate attributeName="opacity" values="1;0" keyTimes="0;1" dur="0.819672131147541s" begin="-0.31525851197982346s" repeatCount="indefinite"></animate>
  </rect>
</g><g transform="rotate(221.53846153846155 50 50)">
  <rect x="47.5" y="21" rx="2.5" ry="5.04" width="5" height="12" fill="#ac71fe">
    <animate attributeName="opacity" values="1;0" keyTimes="0;1" dur="0.819672131147541s" begin="-0.25220680958385877s" repeatCount="indefinite"></animate>
  </rect>
</g><g transform="rotate(249.23076923076923 50 50)">
  <rect x="47.5" y="21" rx="2.5" ry="5.04" width="5" height="12" fill="#ac71fe">
    <animate attributeName="opacity" values="1;0" keyTimes="0;1" dur="0.819672131147541s" begin="-0.18915510718789408s" repeatCount="indefinite"></animate>
  </rect>
</g><g transform="rotate(276.9230769230769 50 50)">
  <rect x="47.5" y="21" rx="2.5" ry="5.04" width="5" height="12" fill="#ac71fe">
    <animate attributeName="opacity" values="1;0" keyTimes="0;1" dur="0.819672131147541s" begin="-0.12610340479192939s" repeatCount="indefinite"></animate>
  </rect>
</g><g transform="rotate(304.61538461538464 50 50)">
  <rect x="47.5" y="21" rx="2.5" ry="5.04" width="5" height="12" fill="#ac71fe">
    <animate attributeName="opacity" values="1;0" keyTimes="0;1" dur="0.819672131147541s" begin="-0.06305170239596469s" repeatCount="indefinite"></animate>
  </rect>
</g><g transform="rotate(332.3076923076923 50 50)">
  <rect x="47.5" y="21" rx="2.5" ry="5.04" width="5" height="12" fill="#ac71fe">
    <animate attributeName="opacity" values="1;0" keyTimes="0;1" dur="0.819672131147541s" begin="0s" repeatCount="indefinite"></animate>
  </rect>
</g>
<!-- [ldio] generated by https://loading.io/ --></svg>